<svg width="121" height="42" viewBox="0 0 121 42" fill="none" xmlns="http://www.w3.org/2000/svg">
<rect y="15" width="2" height="15" rx="1" fill="#0F1922"/>
<rect x="6" y="12" width="2" height="22" rx="1" fill="#0F1922"/>
<rect x="12" y="15" width="2" height="16" rx="1" fill="#0F1922"/>
<rect x="18" y="17" width="2" height="12" rx="1" fill="#0F1922"/>
<rect x="24" y="11" width="2" height="24" rx="1" fill="#0F1922"/>
<rect x="30" y="15" width="2" height="16" rx="1" fill="#0F1922"/>
<path d="M56.48 14.1L51.26 28H48.62L43.38 14.1H45.82L49.94 25.66L54.08 14.1H56.48ZM60.0667 14.1V28H57.7867V14.1H60.0667ZM69.6802 28L66.4802 22.44H64.7402V28H62.4602V14.1H67.2602C68.3268 14.1 69.2268 14.2867 69.9602 14.66C70.7068 15.0333 71.2602 15.5333 71.6202 16.16C71.9935 16.7867 72.1802 17.4867 72.1802 18.26C72.1802 19.1667 71.9135 19.9933 71.3802 20.74C70.8602 21.4733 70.0535 21.9733 68.9602 22.24L72.4002 28H69.6802ZM64.7402 20.62H67.2602C68.1135 20.62 68.7535 20.4067 69.1802 19.98C69.6202 19.5533 69.8402 18.98 69.8402 18.26C69.8402 17.54 69.6268 16.98 69.2002 16.58C68.7735 16.1667 68.1268 15.96 67.2602 15.96H64.7402V20.62ZM73.7369 21.02C73.7369 19.66 74.0502 18.44 74.6769 17.36C75.3169 16.28 76.1769 15.44 77.2569 14.84C78.3502 14.2267 79.5435 13.92 80.8369 13.92C82.3169 13.92 83.6302 14.2867 84.7769 15.02C85.9369 15.74 86.7769 16.7667 87.2969 18.1H84.5569C84.1969 17.3667 83.6969 16.82 83.0569 16.46C82.4169 16.1 81.6769 15.92 80.8369 15.92C79.9169 15.92 79.0969 16.1267 78.3769 16.54C77.6569 16.9533 77.0902 17.5467 76.6769 18.32C76.2769 19.0933 76.0769 19.9933 76.0769 21.02C76.0769 22.0467 76.2769 22.9467 76.6769 23.72C77.0902 24.4933 77.6569 25.0933 78.3769 25.52C79.0969 25.9333 79.9169 26.14 80.8369 26.14C81.6769 26.14 82.4169 25.96 83.0569 25.6C83.6969 25.24 84.1969 24.6933 84.5569 23.96H87.2969C86.7769 25.2933 85.9369 26.32 84.7769 27.04C83.6302 27.76 82.3169 28.12 80.8369 28.12C79.5302 28.12 78.3369 27.82 77.2569 27.22C76.1769 26.6067 75.3169 25.76 74.6769 24.68C74.0502 23.6 73.7369 22.38 73.7369 21.02ZM97.7456 25.16H91.9256L90.9256 28H88.5456L93.5256 14.08H96.1656L101.146 28H98.7456L97.7456 25.16ZM97.1056 23.3L94.8456 16.84L92.5656 23.3H97.1056ZM107.251 14.1C108.731 14.1 110.024 14.3867 111.131 14.96C112.251 15.52 113.111 16.3333 113.711 17.4C114.324 18.4533 114.631 19.6867 114.631 21.1C114.631 22.5133 114.324 23.74 113.711 24.78C113.111 25.82 112.251 26.62 111.131 27.18C110.024 27.7267 108.731 28 107.251 28H102.711V14.1H107.251ZM107.251 26.14C108.878 26.14 110.124 25.7 110.991 24.82C111.858 23.94 112.291 22.7 112.291 21.1C112.291 19.4867 111.858 18.2267 110.991 17.32C110.124 16.4133 108.878 15.96 107.251 15.96H104.991V26.14H107.251ZM118.571 14.1V28H116.291V14.1H118.571Z" fill="#161619"/>
<path d="M72.05 31.506V33.333H73.905V33.739H72.05V35.594H74.115V36H71.56V31.1H74.115V31.506H72.05ZM76.6625 32.108C77.1198 32.108 77.4932 32.2503 77.7825 32.535C78.0718 32.815 78.2165 33.2233 78.2165 33.76V36H77.7335V33.816C77.7335 33.4007 77.6285 33.0833 77.4185 32.864C77.2132 32.6447 76.9308 32.535 76.5715 32.535C76.2028 32.535 75.9088 32.6517 75.6895 32.885C75.4702 33.1183 75.3605 33.4613 75.3605 33.914V36H74.8705V32.178H75.3605V32.829C75.4818 32.5957 75.6568 32.4183 75.8855 32.297C76.1142 32.171 76.3732 32.108 76.6625 32.108ZM82.5482 33.893C82.5482 34.061 82.5435 34.1893 82.5342 34.278H79.3632C79.3772 34.5673 79.4472 34.8147 79.5732 35.02C79.6992 35.2253 79.8649 35.3817 80.0702 35.489C80.2755 35.5917 80.4995 35.643 80.7422 35.643C81.0595 35.643 81.3255 35.566 81.5402 35.412C81.7595 35.258 81.9042 35.0503 81.9742 34.789H82.4922C82.3989 35.1623 82.1982 35.468 81.8902 35.706C81.5869 35.9393 81.2042 36.056 80.7422 36.056C80.3829 36.056 80.0609 35.9767 79.7762 35.818C79.4915 35.6547 79.2675 35.426 79.1042 35.132C78.9455 34.8333 78.8662 34.4857 78.8662 34.089C78.8662 33.6923 78.9455 33.3447 79.1042 33.046C79.2629 32.7473 79.4845 32.5187 79.7692 32.36C80.0539 32.2013 80.3782 32.122 80.7422 32.122C81.1062 32.122 81.4235 32.2013 81.6942 32.36C81.9695 32.5187 82.1795 32.7333 82.3242 33.004C82.4735 33.27 82.5482 33.5663 82.5482 33.893ZM82.0512 33.879C82.0559 33.5943 81.9975 33.3517 81.8762 33.151C81.7595 32.9503 81.5985 32.7987 81.3932 32.696C81.1879 32.5933 80.9639 32.542 80.7212 32.542C80.3572 32.542 80.0469 32.6587 79.7902 32.892C79.5335 33.1253 79.3912 33.4543 79.3632 33.879H82.0512ZM83.7247 32.857C83.832 32.619 83.9954 32.4347 84.2147 32.304C84.4387 32.1733 84.7117 32.108 85.0337 32.108V32.619H84.9007C84.546 32.619 84.2614 32.7147 84.0467 32.906C83.832 33.0973 83.7247 33.417 83.7247 33.865V36H83.2347V32.178H83.7247V32.857ZM87.1638 32.122C87.5232 32.122 87.8358 32.206 88.1018 32.374C88.3678 32.542 88.5592 32.7543 88.6758 33.011V32.178H89.1658V36.098C89.1658 36.448 89.0888 36.7583 88.9348 37.029C88.7855 37.2997 88.5755 37.5073 88.3048 37.652C88.0342 37.8013 87.7262 37.876 87.3808 37.876C86.8908 37.876 86.4825 37.7593 86.1558 37.526C85.8338 37.2927 85.6332 36.9753 85.5538 36.574H86.0368C86.1208 36.84 86.2795 37.0523 86.5128 37.211C86.7508 37.3697 87.0402 37.449 87.3808 37.449C87.6282 37.449 87.8498 37.3953 88.0458 37.288C88.2418 37.1853 88.3958 37.0313 88.5078 36.826C88.6198 36.6207 88.6758 36.378 88.6758 36.098V35.153C88.5545 35.4143 88.3608 35.6313 88.0948 35.804C87.8335 35.972 87.5232 36.056 87.1638 36.056C86.8138 36.056 86.4988 35.9743 86.2188 35.811C85.9435 35.6477 85.7265 35.4167 85.5678 35.118C85.4138 34.8193 85.3368 34.474 85.3368 34.082C85.3368 33.69 85.4138 33.347 85.5678 33.053C85.7265 32.7543 85.9435 32.5257 86.2188 32.367C86.4988 32.2037 86.8138 32.122 87.1638 32.122ZM88.6758 34.089C88.6758 33.781 88.6128 33.5103 88.4868 33.277C88.3608 33.0437 88.1882 32.864 87.9688 32.738C87.7542 32.612 87.5162 32.549 87.2548 32.549C86.9842 32.549 86.7415 32.6097 86.5268 32.731C86.3122 32.8523 86.1418 33.0297 86.0158 33.263C85.8945 33.4917 85.8338 33.7647 85.8338 34.082C85.8338 34.3947 85.8945 34.67 86.0158 34.908C86.1418 35.1413 86.3122 35.321 86.5268 35.447C86.7415 35.5683 86.9842 35.629 87.2548 35.629C87.5162 35.629 87.7542 35.566 87.9688 35.44C88.1882 35.314 88.3608 35.1343 88.4868 34.901C88.6128 34.6677 88.6758 34.397 88.6758 34.089ZM93.2245 32.178L90.9565 37.799H90.4455L91.1875 35.979L89.6195 32.178H90.1585L91.4605 35.44L92.7205 32.178H93.2245Z" fill="#161619"/>
</svg>
